<?xml version="1.0" encoding="UTF-8" standalone="no"?>
<svg
   xmlns:dc="http://purl.org/dc/elements/1.1/"
   xmlns:cc="http://creativecommons.org/ns#"
   xmlns:rdf="http://www.w3.org/1999/02/22-rdf-syntax-ns#"
   xmlns:svg="http://www.w3.org/2000/svg"
   xmlns="http://www.w3.org/2000/svg"
   xmlns:xlink="http://www.w3.org/1999/xlink"
   xmlns:sodipodi="http://sodipodi.sourceforge.net/DTD/sodipodi-0.dtd"
   xmlns:inkscape="http://www.inkscape.org/namespaces/inkscape"
   id="svg8"
   version="1.1"
   viewBox="0 0 79.597153 91.629402"
   height="91.629402mm"
   width="79.597153mm"
   inkscape:version="1.0.2-2 (e86c870879, 2021-01-15)"
   sodipodi:docname="imglogo.svg">
  <defs
     id="defs2">
    <linearGradient
       inkscape:collect="always"
       id="linearGradient4273">
      <stop
         style="stop-color:#000000;stop-opacity:1;"
         offset="0"
         id="stop4269" />
      <stop
         style="stop-color:#000000;stop-opacity:0;"
         offset="1"
         id="stop4271" />
    </linearGradient>
    <meshgradient
       inkscape:collect="always"
       id="meshgradient2069"
       gradientUnits="userSpaceOnUse"
       x="-3.5993972"
       y="-175.66199">
      <meshrow
         id="meshrow2071">
        <meshpatch
           id="meshpatch2073">
          <stop
             path="c 98.4523,0  196.905,0  295.357,0"
             style="stop-color:#ffffff;stop-opacity:1"
             id="stop2075" />
          <stop
             path="c 0,79.6451  0,159.29  0,238.935"
             style="stop-color:#d69843;stop-opacity:1"
             id="stop2077" />
          <stop
             path="c -98.4523,0  -196.905,0  -295.357,0"
             style="stop-color:#ffffff;stop-opacity:1"
             id="stop2079" />
          <stop
             path="c 0,-79.6451  0,-159.29  0,-238.935"
             style="stop-color:#d69843;stop-opacity:1"
             id="stop2081" />
        </meshpatch>
      </meshrow>
    </meshgradient>
    <meshgradient
       inkscape:collect="always"
       id="meshgradient2083"
       gradientUnits="userSpaceOnUse"
       x="10.447004"
       y="-121.86828">
      <meshrow
         id="meshrow2085">
        <meshpatch
           id="meshpatch2087">
          <stop
             path="c 86.6012,0  173.202,0  259.804,0"
             style="stop-color:#ffffff;stop-opacity:1"
             id="stop2089" />
          <stop
             path="c 0,70.2005  0,140.401  0,210.601"
             style="stop-color:#d69843;stop-opacity:1"
             id="stop2091" />
          <stop
             path="c -86.6012,0  -173.202,0  -259.804,0"
             style="stop-color:#ffffff;stop-opacity:1"
             id="stop2093" />
          <stop
             path="c 0,-70.2005  0,-140.401  0,-210.601"
             style="stop-color:#d69843;stop-opacity:1"
             id="stop2095" />
        </meshpatch>
      </meshrow>
    </meshgradient>
    <meshgradient
       inkscape:collect="always"
       id="meshgradient4247"
       gradientUnits="userSpaceOnUse"
       x="27.160618"
       y="-52.395451">
      <meshrow
         id="meshrow4249">
        <meshpatch
           id="meshpatch4251">
          <stop
             path="c 79.9714,0  159.943,0  239.914,0"
             style="stop-color:#ffffff;stop-opacity:1"
             id="stop4253" />
          <stop
             path="c 0,71.7712  0,143.542  0,215.314"
             style="stop-color:#d99f50;stop-opacity:1"
             id="stop4255" />
          <stop
             path="c -79.9714,0  -159.943,0  -239.914,0"
             style="stop-color:#ffffff;stop-opacity:1"
             id="stop4257" />
          <stop
             path="c 0,-71.7712  0,-143.542  0,-215.314"
             style="stop-color:#d99f50;stop-opacity:1"
             id="stop4259" />
        </meshpatch>
      </meshrow>
    </meshgradient>
    <radialGradient
       inkscape:collect="always"
       xlink:href="#linearGradient4273"
       id="radialGradient4275"
       cx="144.07841"
       cy="-56.194118"
       fx="144.07841"
       fy="-56.194118"
       r="147.94051"
       gradientTransform="matrix(1,0,0,0.80930097,0,-10.716164)"
       gradientUnits="userSpaceOnUse" />
    <clipPath
       clipPathUnits="userSpaceOnUse"
       id="clipPath4594">
      <path
         id="path4596"
         style="fill:#ff0000;fill-opacity:1;fill-rule:nonzero;stroke:none;stroke-width:0.264583"
         d="M 57.238884,42.079603 V 109.49719 H 136.83609 V 42.079603 Z" />
    </clipPath>
    <clipPath
       clipPathUnits="userSpaceOnUse"
       id="clipPath4604">
      <path
         id="path4606"
         style="fill:#ff0000;fill-opacity:1;fill-rule:nonzero;stroke:none;stroke-width:0.264583"
         d="M 60.945633,56.466322 V 119.31881 H 131.00595 V 56.466322 Z" />
    </clipPath>
    <clipPath
       clipPathUnits="userSpaceOnUse"
       id="clipPath4614">
      <path
         id="path4616"
         style="fill:#ff0000;fill-opacity:1;fill-rule:nonzero;stroke:none;stroke-width:0.264583"
         d="M 79.018432,75.268275 V 133.70915 H 129.81688 V 75.268275 Z" />
    </clipPath>
    <clipPath
       clipPathUnits="userSpaceOnUse"
       id="clipPath4624">
      <path
         id="path4626"
         style="fill:#ff0000;fill-opacity:1;fill-rule:nonzero;stroke:none;stroke-width:0.264583"
         d="m 82.628549,113.25458 v 7.51789 h 23.997501 v -7.51789 z" />
    </clipPath>
    <clipPath
       clipPathUnits="userSpaceOnUse"
       id="clipPath4634">
      <path
         id="path4636"
         style="fill:#ff0000;fill-opacity:1;fill-rule:nonzero;stroke:none;stroke-width:0.264583"
         d="m 98.415181,104.81066 v 8.69507 h 17.511589 v -8.69507 z" />
    </clipPath>
    <clipPath
       clipPathUnits="userSpaceOnUse"
       id="clipPath4644">
      <path
         id="path4646"
         style="fill:#ff0000;fill-opacity:1;fill-rule:nonzero;stroke:none;stroke-width:0.264583"
         d="m 89.611584,110.02016 v 2.99206 h 8.883179 v -2.99206 z" />
    </clipPath>
    <clipPath
       clipPathUnits="userSpaceOnUse"
       id="clipPath4654">
      <path
         id="path4656"
         style="fill:#ff0000;fill-opacity:1;fill-rule:nonzero;stroke:none;stroke-width:0.264583"
         d="m 67.977763,112.75952 v 6.97839 h 21.711854 v -6.97839 z" />
    </clipPath>
    <clipPath
       clipPathUnits="userSpaceOnUse"
       id="clipPath4664">
      <path
         id="path4666"
         style="fill:#ff0000;fill-opacity:1;fill-rule:nonzero;stroke:none;stroke-width:0.264583"
         d="m 66.204227,114.30051 v 5.35162 h 1.939417 v -5.35162 z" />
    </clipPath>
    <clipPath
       clipPathUnits="userSpaceOnUse"
       id="clipPath4674">
      <path
         id="path4676"
         style="fill:#ff0000;fill-opacity:1;fill-rule:nonzero;stroke:none;stroke-width:0.264583"
         d="M 65.283871,74.862097 V 114.37286 H 120.00714 V 74.862097 Z" />
    </clipPath>
    <clipPath
       clipPathUnits="userSpaceOnUse"
       id="clipPath4686">
      <path
         id="path4688"
         style="fill:#ff0000;fill-opacity:1;fill-rule:nonzero;stroke:none;stroke-width:0.264583"
         d="m -151.40213,120.5947 v 9.90224 c 1.74099,-3.12413 4.15549,-7.21021 5.76038,-9.90224 z m 28.3559,0 c -0.6517,0.52305 -1.29647,1.05446 -1.93528,1.59319 0.68245,1.09701 1.22513,2.37473 1.65726,3.75843 2.13528,-2.19463 4.03391,-4.1563 5.15885,-5.35162 z m 18.49706,0 c -0.37777,0.35814 -0.75454,0.71739 -1.12758,1.08056 -0.14862,0.14468 -0.30849,0.30404 -0.46095,0.45372 0.39143,0.25455 0.79117,0.55447 1.20095,0.9095 0.73109,-0.53935 1.46476,-1.0751 2.2071,-1.59887 0.26178,-0.1847 0.67719,-0.495 1.1498,-0.84491 z m 16.747294,0 c -0.731721,1.11414 -1.444342,2.19615 -2.450497,3.74603 -0.450995,0.67028 -0.897622,1.34343 -1.346171,2.01538 1.713461,-1.57027 3.282514,-2.97828 4.496885,-4.01268 0.705575,-0.601 1.430475,-1.17856 2.161106,-1.74873 z m 33.130278,0 c -0.572629,0.44459 -1.143198,0.89204 -1.712558,1.34101 -0.09727,0.25034 -0.18348,0.49758 -0.224274,0.73174 -0.32073,0.70872 -0.60171,1.43858 -0.901239,2.15852 0.679455,0.49583 1.010465,1.34013 0.828892,2.29857 0.250388,0.0183 0.49558,0.0466 0.732771,0.0873 1.092372,-1.18613 2.289413,-2.49196 3.782714,-4.13153 0.758923,-0.83326 1.527132,-1.65933 2.294951,-2.48564 z m 12.275736,0 c -1.84888,2.13163 -3.81403,4.16604 -5.714897,6.25234 -1.609752,1.76675 -2.879709,3.15076 -4.035928,4.40438 -0.03225,0.67603 -0.220562,1.42418 -0.602549,2.2412 -1.271209,2.71907 -3.629162,4.78215 -5.443595,7.17321 -0.52436,0.67457 -1.051169,1.34732 -1.576647,2.02106 v 7.14582 c -0.05943,6.52722 0.03114,13.05681 0.02066,19.58434 1.114472,-3.23038 2.24215,-6.45671 3.242696,-9.72447 0.701736,-2.29188 2.106491,-3.26184 3.330546,-3.18947 1.573792,0.093 2.849258,1.90932 1.947169,4.85603 -1.557287,5.08696 -3.42302,10.07319 -5.067908,15.13086 -0.812266,2.49755 -1.569305,5.01305 -2.353861,7.51944 -0.657698,2.21302 -1.323639,4.42452 -1.990576,6.63577 -0.804754,9.28949 -1.637441,18.58088 -2.700095,27.84223 -1.501629,12.01097 -2.996797,24.0209 -4.560961,36.02415 -1.039627,8.61146 -2.531608,17.15914 -3.853511,25.72971 -0.866997,6.35949 -1.718283,12.72346 -2.519743,19.09236 -0.69522,5.35101 -1.40412,10.7003 -2.114082,16.04967 16.756446,-2.65157 33.520663,-5.25309 50.291503,-7.81452 20.4209111,-3.31158 40.836068,-6.65848 61.201948,-10.29549 3.663267,-0.53237 7.337234,-0.92162 11.019999,-1.19632 2.261973,-0.875 4.533299,-1.71746 6.891054,-2.2603 2.468978,-0.56846 5.058871,-0.312 7.591785,-0.37002 7.600844,-0.17391 15.230663,0.13967 22.801191,0.80875 0.386416,3.36799 1.169294,6.74026 1.792655,10.111 10.653903,1.52209 21.367849,2.73746 31.920529,4.6328 47.40846,6.82244 94.83813,13.55365 142.09624,21.36251 0.0799,0.0967 0.16336,0.19177 0.24598,0.28734 0.37504,0.0921 0.60356,0.304 0.6227,0.68728 4.16329,4.37891 10.8181,7.76621 11.21172,13.64517 0.3065,4.57756 -6.37262,6.90081 -10.50633,8.89093 -2.5729,1.2387 -5.70745,0.2055 -8.56175,0.2894 -4.59003,0.13491 -9.18054,0.2508 -13.77126,0.35449 -0.67645,1.57096 -1.39297,3.26054 -2.18488,5.20898 -0.57479,1.41422 -3.02356,0.43447 -4.54391,0.57206 -6.83674,0.61867 -13.73987,0.744 -20.59564,0.97668 -11.5514,0.2045 -23.09826,0.44881 -34.64129,0.81029 29.23627,3.22595 58.5645,5.6352 87.74864,9.3028 2.25934,0.33269 5.93821,-0.83077 7.68946,0.0377 V 120.5947 Z m -59.215508,10.46035 c -0.18455,0.13891 -0.37108,0.2755 -0.55604,0.41392 0.018,0.11272 0.036,0.22484 0.0532,0.3359 0.17177,-0.24717 0.33958,-0.49701 0.50281,-0.74982 z m -1.97559,2.73471 c -0.80209,0.51538 -1.67877,0.93401 -2.54351,1.36839 -0.35045,0.95663 -0.78078,1.76222 -1.28726,2.52181 0.31232,-0.046 0.62381,-0.0787 0.93173,-0.0909 0.33692,-0.45271 0.53465,-0.71414 0.92604,-1.24126 0.64102,-0.86335 1.3129,-1.70677 1.973,-2.55799 z m -16.7783,10.76989 c -0.45267,0.35468 -0.9037,0.7115 -1.35444,1.06867 -0.002,0.13866 -0.002,0.24765 -0.005,0.40204 0.45516,-0.48852 0.91034,-0.97685 1.35961,-1.47071 z m 38.493255,25.22947 c -0.76898,0.88447 -1.542079,1.76529 -2.318721,2.64325 0.955725,1.50532 1.677114,3.40434 2.223635,5.45703 0.0722,-2.69897 0.09381,-5.39946 0.09509,-8.10028 z m 34.387049,84.57623 c 0.106902,-0.003 0.22016,0.001 0.340548,0.0139 0.479615,0.0508 0.942774,0.19473 1.406115,0.32195 0.365178,0.10313 0.736751,0.18356 1.111043,0.24546 0.393571,0.0495 0.786321,0.10367 1.17874,0.16227 0.419375,0.0535 0.837166,0.11395 1.254702,0.18035 0.333161,0.0547 0.668017,0.10057 1.003557,0.13797 0.30879,0.0282 0.611653,0.10474 0.907439,0.19534 0.195066,0.0772 0.39643,0.13255 0.597897,0.18965 0.267674,0.065 0.512781,0.19466 0.771528,0.28525 0.268179,0.0697 0.520184,0.16447 0.768429,0.28784 0.236971,0.14646 0.472588,0.29489 0.699699,0.45631 0.23232,0.1669 0.451344,0.35099 0.667141,0.53846 0.284991,0.2262 0.520044,0.48795 0.725538,0.78652 0.216673,0.36701 0.319513,0.78159 0.405143,1.19476 0.06686,0.33188 0.114768,0.66648 0.129709,1.00459 0.01508,0.41323 -0.118787,0.78708 -0.333314,1.13275 -0.171296,0.26532 -0.392136,0.48573 -0.639238,0.67954 -0.24914,0.17995 -0.524632,0.31533 -0.808218,0.43098 -0.286887,0.10221 -0.584062,0.17725 -0.879533,0.25115 -0.278344,0.0647 -0.551164,0.15123 -0.825272,0.23203 -0.37837,0.11969 -0.768276,0.1967 -1.159621,0.2589 -0.350407,0.0528 -0.702768,0.089 -1.055749,0.11937 -0.314613,0.0273 -0.630163,0.04 -0.945679,0.0512 -0.304408,0.0105 -0.609095,0.0162 -0.913638,0.0212 -0.315074,0.0128 -0.625298,0.01 -0.938445,-0.0253 -0.504587,-0.0972 -0.941777,-0.38486 -1.368909,-0.65577 -0.376124,-0.2453 -0.741659,-0.50619 -1.105358,-0.76947 -0.357561,-0.26781 -0.710462,-0.54188 -1.066086,-0.81235 -0.270171,-0.20827 -0.569968,-0.37375 -0.855244,-0.56069 -1.620107,-1.06165 -0.546367,-2.69917 1.072803,-1.63607 0.323046,0.2121 0.662951,0.40002 0.966867,0.63975 0.343429,0.26128 0.68457,0.52563 1.029393,0.78497 0.331671,0.24041 0.66571,0.47853 1.008208,0.70331 0.200904,0.12827 0.440592,0.28116 0.627351,0.37466 -0.120155,0.0306 0.437296,0.003 0.464056,0.003 0.0444,-0.001 0.08891,-7.9e-4 0.133323,-0.002 0.292156,-0.005 0.584406,-0.0102 0.876432,-0.0202 0.282911,-0.01 0.565899,-0.0212 0.848011,-0.0455 0.307502,-0.0262 0.614516,-0.0574 0.91984,-0.10284 0.307226,-0.0473 0.612987,-0.10829 0.909505,-0.20309 0.301985,-0.0889 0.602941,-0.18306 0.909505,-0.25476 0.209519,-0.0506 0.418928,-0.107 0.624769,-0.1695 0.127407,-0.0473 0.248616,-0.1089 0.363286,-0.1819 0.06174,-0.0442 0.123246,-0.11007 0.170016,-0.18087 -0.005,0.087 0.01328,0.0559 0.01497,-0.0186 0.02926,-0.21418 -0.07945,-0.44347 -0.09095,-0.65629 -0.03794,-0.18896 -0.07495,-0.3816 -0.152964,-0.55862 0.01074,0.008 0.03874,0.034 0.03204,0.0227 -0.08829,-0.14853 -0.264604,-0.23474 -0.376721,-0.36122 -0.168712,-0.14701 -0.339485,-0.29195 -0.520899,-0.42323 -0.164637,-0.11888 -0.338492,-0.2234 -0.507979,-0.33486 0.107347,0.0169 -0.357618,-0.11682 -0.361219,-0.11782 -0.0416,-0.0131 -0.0827,-0.0279 -0.124024,-0.0419 -0.215177,-0.0786 -0.422354,-0.17931 -0.641821,-0.24392 -0.223522,-0.0634 -0.447976,-0.1247 -0.664559,-0.2098 -0.165163,-0.0649 -0.350343,-0.0905 -0.525031,-0.11266 -0.365554,-0.0411 -0.73048,-0.0906 -1.093475,-0.15038 -0.411502,-0.0655 -0.823291,-0.12496 -1.236615,-0.17776 -0.403897,-0.0604 -0.807977,-0.11443 -1.212848,-0.16743 -0.439533,-0.0745 -0.876257,-0.16718 -1.305345,-0.28887 -0.364236,-0.10003 -0.728295,-0.21895 -1.104326,-0.26355 -1.803286,-0.21375 -1.728087,-1.91523 -0.12454,-1.95906 z m 92.868231,63.97904 c -2.361676,0.21257 -4.718555,0.48424 -7.070367,0.83198 -8.795674,1.57793 -17.60204,3.09386 -26.413893,4.57647 -0.02386,0.45615 -0.04436,0.90258 -0.06201,1.33792 1.813117,-0.15036 4.58776,-1.55887 5.04517,0.0641 0.272984,0.96856 0.51083,1.95014 0.719336,2.94039 1.040905,0.0292 2.081889,0.0584 3.122807,0.0873 2.437569,-0.26744 4.88837,-0.41947 7.366475,-0.34986 0.02582,0.22458 0.05574,0.4489 0.08372,0.67337 9.870284,0.38468 19.844758,0.46148 29.403889,3.0494 1.553128,-0.43212 4.174102,-0.0145 5.756238,-0.42373 7.721159,-1.41909 15.444714,-2.85044 23.176363,-4.23902 -9.7584,-1.41502 -19.492484,-2.96791 -29.121735,-5.15369 -0.4245,-0.0964 -7.432614,-1.49246 -12.005988,-3.39463 z m -22.581566,9.75289 c -0.277677,0.007 -0.66948,0.0375 -1.002006,0.11525 0.145554,0.004 0.291111,0.008 0.436666,0.0124 0.272006,-0.0314 0.543749,-0.0651 0.816487,-0.0899 0.163634,-0.0148 0.127961,-0.0313 -0.01809,-0.0372 -0.06085,-0.003 -0.140501,-0.003 -0.23306,0 z m -174.203839,12.515 v 29.1052 c 1.64657,-5.19642 0.72197,-3.17916 2.95435,-7.32256 0.0996,-0.18481 0.20033,-0.36904 0.29972,-0.55395 -0.81697,-4.06983 0.47733,-8.18412 3.78685,-11.58172 0.0489,-0.0408 0.0992,-0.0794 0.14831,-0.11991 0.20339,-2.07137 0.33585,-4.58843 0.50385,-6.81508 -2.12749,-0.44752 -4.65638,-1.34083 -7.69308,-2.71198 z m 54.646796,13.4116 c -2.636491,3.31277 -5.462346,6.46885 -8.433076,9.49296 -0.61245,1.37488 -1.31834,2.72909 -2.127,3.92946 0.008,0.70913 -0.0157,1.4502 -0.13023,2.0562 -0.19545,1.03442 -0.48555,2.0279 -0.86609,2.97554 H 56.941228 c 0.590579,-2.29402 1.507146,-4.59846 1.908926,-6.88639 1.117111,-1.05741 2.276899,-2.05272 3.469556,-3.00035 0.08827,-0.55338 0.182644,-1.1072 0.282154,-1.66087 -9.672878,0.0109 -19.345511,0.022 -29.018384,0.0367 -2.66633,0.004 -5.332666,0.0116 -7.998995,0.0164 -0.193418,0.32049 -0.410974,0.63982 -0.656291,0.95702 -2.409219,3.11576 -6.878031,3.83839 -10.3172,5.75781 -6.2269559,-0.96747 -12.2494313,-2.45647 -18.5621741,-2.93317 -21.1699489,-1.30701 -42.3905009,-1.65536 -63.5914679,-2.19675 -3.013229,-0.0761 -6.026772,-0.14322 -9.039757,-0.22842 -0.530236,-0.0151 -9.082857,-0.28181 -10.487731,-0.37671 -0.736135,-0.0497 -2.134264,0.46945 -2.197799,-0.26562 -0.223668,-2.5876 -0.475811,-4.8506 -0.731224,-6.85953 -2.206212,0.52745 -4.536604,0.24289 -6.756175,-0.81442 z m 325.889154,3.81526 c 0.2965,0.28403 1.11318,0.44688 2.7745,0.79891 -0.85889,-0.32951 -1.79141,-0.5893 -2.7745,-0.79891 z" />
    </clipPath>
  </defs>
  <sodipodi:namedview
     id="base"
     pagecolor="#ffffff"
     bordercolor="#666666"
     borderopacity="1.0"
     inkscape:pageopacity="0.0"
     inkscape:pageshadow="2"
     inkscape:zoom="0.47808737"
     inkscape:cx="523.2275"
     inkscape:cy="518.05268"
     inkscape:document-units="mm"
     inkscape:current-layer="layer1"
     inkscape:document-rotation="0"
     showgrid="false"
     inkscape:window-width="1920"
     inkscape:window-height="1001"
     inkscape:window-x="-9"
     inkscape:window-y="-9"
     inkscape:window-maximized="1"
     inkscape:object-paths="true" />
  <metadata
     id="metadata5">
    <rdf:RDF>
      <cc:Work
         rdf:about="">
        <dc:format>image/svg+xml</dc:format>
        <dc:type
           rdf:resource="http://purl.org/dc/dcmitype/StillImage" />
        <dc:title></dc:title>
      </cc:Work>
    </rdf:RDF>
  </metadata>
  <g
     inkscape:label="Capa 1"
     inkscape:groupmode="layer"
     id="layer1"
     transform="translate(1.3358544,47.474962)">
    <path
       style="fill:none;stroke:#000000;stroke-width:0.264583px;stroke-linecap:butt;stroke-linejoin:miter;stroke-opacity:1"
       d="m 77.912779,-47.148777 c -6.64105,11.137588 -6.57187,11.137588 -6.57187,11.137588 l -48.182167,21.081859 -5.534205,2.784396 c 0,0 -4.537257,2.225431 -6.200396,3.692908 -1.663142,1.46748 -12.571391,11.593073 -11.739822,20.495767 0.83157,8.9027 0.73374,7.82655 0.73374,7.82655 0,0 -3.766526,-11.006081 0.195662,-19.02829 3.962191,-8.022212 8.071128,-12.131149 11.690905,-14.332365 3.619778,-2.201217 10.761501,-5.967744 14.674776,-7.826547 3.913272,-1.858807 50.933377,-25.831866 50.933377,-25.831866 z"
       id="path592-9" />
    <path
       style="fill:none;stroke:#000000;stroke-width:0.264583px;stroke-linecap:butt;stroke-linejoin:miter;stroke-opacity:1"
       d="M 72.128799,-32.812152 17.734294,-9.136847 c 0,0 -9.414137,5.91582 -11.835351,11.519202 -2.421215,5.603382 -3.873944,8.578016 -3.251346,12.521136 0.622598,3.94312 0.760953,4.49654 1.176019,6.08763 0.415065,1.59108 3.804765,8.71637 3.804765,8.71637 l -2.490392,-7.88624 c 0,0 -1.591083,-8.99308 4.081476,-15.703308 5.67256,-6.710223 3.320523,-4.773251 7.471177,-7.678709 4.150653,-2.905457 6.7794,-4.081476 6.7794,-4.081476 l 42.129137,-15.28824 z"
       id="path606-1" />
    <path
       style="fill:none;stroke:#000000;stroke-width:0.264583px;stroke-linecap:butt;stroke-linejoin:miter;stroke-opacity:1"
       d="m 61.863589,-14.22026 -7.81707,13.489622 c 0,0 -22.759414,7.056112 -26.149113,8.785551 -3.389702,1.729438 -6.502691,5.395848 -7.056112,6.433508 -0.553421,1.03767 0,0.76096 0,0.76096 L 68.158739,0.860448 c 0,0 5.32668,11.898543 1.66027,17.847813 -3.66642,5.94927 -9.06226,11.55265 -12.38279,13.28209 -3.32052,1.72944 -36.802456,11.96772 -36.802456,11.96772 l 3.458876,-12.86703"
       id="path608-4" />
    <path
       style="fill:none;stroke:#000000;stroke-width:0.264583px;stroke-linecap:butt;stroke-linejoin:miter;stroke-opacity:1"
       d="m 24.092639,31.091041 23.92061,-7.25856 h -0.0367 c 0,0 -0.99056,0.28126 0,0"
       id="path675-7" />
    <path
       style="fill:none;stroke:#000000;stroke-width:0.264583px;stroke-linecap:butt;stroke-linejoin:miter;stroke-opacity:1"
       d="m 48.013249,23.832481 c 0,0 5.30738,-2.62923 6.28569,-3.96219 0.97832,-1.33296 2.77598,-4.40243 2.77598,-4.40243 l -7.28847,1.96887 -9.905472,3.15507"
       id="path677-2" />
    <path
       style="fill:none;stroke:#000000;stroke-width:0.264583px;stroke-linecap:butt;stroke-linejoin:miter;stroke-opacity:1"
       d="m 39.880975,20.591801 -8.804865,2.73929"
       id="path679-4" />
    <path
       style="fill:none;stroke:#000000;stroke-width:0.264583px;stroke-linecap:butt;stroke-linejoin:miter;stroke-opacity:1"
       d="m 31.07611,23.331091 -14.515798,4.48804 -7.117268,2.2379"
       id="path681-8" />
    <path
       style="fill:none;stroke:#000000;stroke-width:0.264583px;stroke-linecap:butt;stroke-linejoin:miter;stroke-opacity:1"
       d="M 9.443044,30.057031 7.755447,24.786341"
       id="path683-4" />
    <path
       style="fill:none;stroke:#000000;stroke-width:0.264583px;stroke-linecap:butt;stroke-linejoin:miter;stroke-opacity:1"
       d="m 7.755447,24.786341 c 0,0 -1.491938,-5.96774 -0.660366,-9.26956 0.83157,-3.30183 0.831573,-3.52195 1.56531,-5.282924 0.284712,-0.68331 0.819838,-1.52497 1.448194,-2.366367 0.990996,-1.326987 2.213887,-2.65332 3.052069,-3.356795 1.369647,-1.149525 3.864359,-3.570862 4.475808,-3.766527 0.611449,-0.195664 3.668694,-2.617001 5.50304,-3.081702 1.834348,-0.464701 38.252247,-12.228981 38.252247,-12.228981"
       id="path685-4"
       sodipodi:nodetypes="cssssssc" />
    <path
       style="fill:none;stroke:#000000;stroke-width:0.264583px;stroke-linecap:butt;stroke-linejoin:miter;stroke-opacity:1"
       d="m 61.863589,-14.22026 c -0.47184,-0.346255 -0.47184,-0.346255 -0.47184,-0.346255"
       id="path687-1" />
    <path
       style="opacity:1;fill:url(#meshgradient2083);fill-opacity:1;stroke-width:0.522917"
       d="M 18.461624,87.553361 C 18.214148,86.906251 17.40242,84.880398 16.657786,83.051459 13.806974,76.049434 10.396975,57.345515 10.44756,48.988235 10.490158,41.950504 11.969845,36.103958 16.658203,24.448693 24.39513,5.214693 27.261487,0.44718051 36.978101,-9.3486545 43.869718,-16.296459 51.539917,-22.715693 60.79461,-29.280822 L 66.822808,-33.557127 168.455,-77.793733 c 55.89771,-24.330137 101.70525,-44.163547 101.79455,-44.074247 0.0893,0.0893 -5.00074,9.56619 -11.31118,21.05977 -9.4131,17.144636 -11.73291,21.003803 -12.91788,21.489854 -0.79439,0.325843 -36.62359,13.354313 -79.62044,28.952157 -42.99685,15.597845 -79.518921,29.03644 -81.160169,29.863548 -6.986777,3.520983 -16.059282,9.253784 -27.556104,17.4123557 -6.382522,4.5292715 -4.71616,2.69306426 -23.945229,26.3859043 -8.668098,10.680281 -13.764964,23.639873 -15.348894,39.027008 -0.85517,8.307577 -0.369478,18.822313 1.061559,22.981694 1.261031,3.66525 1.243005,3.425613 0.257685,3.425613 -0.438525,0 -0.999798,-0.529453 -1.247274,-1.176563 z"
       id="path1929"
       transform="scale(0.26458333)" />
    <path
       style="opacity:1;fill:url(#meshgradient2069);fill-opacity:1;stroke:url(#radialGradient4275);stroke-width:0.522917;stroke-opacity:1"
       d="M -1.6398687,58.631362 C -4.7221153,40.855255 -4.1487485,23.68115 -0.05719357,11.225352 4.078804,-1.3657413 17.951974,-23.621234 29.139967,-35.613059 c 10.675916,-11.442955 25.460718,-20.402567 71.634003,-43.410313 19.83757,-9.884882 83.74011,-42.271898 159.47364,-80.824248 17.24744,-8.77985 31.42635,-15.896 31.5087,-15.81365 0.0823,0.0823 -4.58606,8.12941 -10.37423,17.88237 -5.78817,9.75296 -10.87229,18.45547 -11.29807,19.33893 -0.72055,1.4951 -6.96854,4.31506 -90.27125,40.742988 C 82.769585,-55.260409 61.347899,-45.287106 47.43644,-36.06649 43.02935,-33.14544 36.428747,-27.07863 29.996375,-20.036805 15.144533,-3.7777899 5.5748208,11.038105 0.94931796,24.934054 -2.2180812,34.449564 -2.5676086,39.270006 -1.1622166,54.054903 c 0.44934801,4.7272 0.72850493,8.860378 0.6203486,9.184848 -0.10815627,0.32447 -0.6022566,-1.749304 -1.0980007,-4.608389 z"
       id="path1933"
       transform="scale(0.26458333)" />
    <path
       style="opacity:1;mix-blend-mode:darken;fill:url(#meshgradient4247);fill-opacity:1;fill-rule:nonzero;stroke-width:1.4778;stroke-miterlimit:4;stroke-dasharray:none"
       d="m 80.240726,162.82109 c 0,-2.27079 11.952972,-43.1901 12.846476,-43.97811 0.662384,-0.58418 21.298868,-7.1315 45.858858,-14.5496 54.32477,-16.408258 62.2251,-20.352948 72.55829,-36.228834 3.6119,-5.5493 6.30028,-10.356443 5.97418,-10.682539 C 216.4067,56.310183 187.0611,64.927608 111.56162,88.484828 70.625156,101.25775 36.942924,111.47986 36.712215,111.20062 34.896308,109.00269 29.624682,89.343951 28.189594,79.418382 26.643819,68.727269 26.757047,65.754044 29.094104,55.666939 32.710007,40.060137 37.653692,31.401623 49.920559,19.190877 60.135742,9.0224308 77.177141,-3.2773502 85.554254,-6.5280567 94.786384,-10.110549 229.96335,-52.892865 230.46514,-52.391073 c 0.29312,0.293106 -5.60015,11.301563 -13.09613,24.463239 l -13.62907,23.9303177 -12.57177,3.88515668 C 161.96434,8.9127354 112.97253,25.523849 106.1238,28.722702 c -4.07295,1.902361 -12.212377,8.156382 -18.118153,13.92129 -10.237277,9.993092 -13.282358,15.543252 -8.527769,15.543252 1.20737,0 41.574402,-11.990724 89.704512,-26.646052 48.1301,-14.655329 87.60693,-26.4691018 87.72629,-26.2528273 4.75507,8.6165993 10.0856,31.7468933 10.16409,44.1041783 0.0834,13.142567 -2.24535,18.847401 -14.14479,34.649963 -12.61882,16.757884 -27.80333,31.004884 -38.36616,35.997394 -14.7111,6.95317 -134.321094,45.04887 -134.321094,42.78119 z"
       id="path4171"
       transform="scale(0.26458333)" />
    <path
       style="opacity:1;fill:#f4eed7;fill-opacity:1;fill-rule:nonzero;stroke:#daa255;stroke-width:3.09106;stroke-miterlimit:4;stroke-dasharray:none;stroke-opacity:1"
       d=""
       id="path4390"
       transform="scale(0.26458333)" />
  </g>
  <script
     id="mesh_polyfill"
     type="text/javascript">
!function(){const t=&quot;http://www.w3.org/2000/svg&quot;,e=&quot;http://www.w3.org/1999/xlink&quot;,s=&quot;http://www.w3.org/1999/xhtml&quot;,r=2;if(document.createElementNS(t,&quot;meshgradient&quot;).x)return;const n=(t,e,s,r)=&gt;{let n=new x(.5*(e.x+s.x),.5*(e.y+s.y)),o=new x(.5*(t.x+e.x),.5*(t.y+e.y)),i=new x(.5*(s.x+r.x),.5*(s.y+r.y)),a=new x(.5*(n.x+o.x),.5*(n.y+o.y)),h=new x(.5*(n.x+i.x),.5*(n.y+i.y)),l=new x(.5*(a.x+h.x),.5*(a.y+h.y));return[[t,o,a,l],[l,h,i,r]]},o=t=&gt;{let e=t[0].distSquared(t[1]),s=t[2].distSquared(t[3]),r=.25*t[0].distSquared(t[2]),n=.25*t[1].distSquared(t[3]),o=e&gt;s?e:s,i=r&gt;n?r:n;return 18*(o&gt;i?o:i)},i=(t,e)=&gt;Math.sqrt(t.distSquared(e)),a=(t,e)=&gt;t.scale(2/3).add(e.scale(1/3)),h=t=&gt;{let e,s,r,n,o,i,a,h=new g;return t.match(/(\w+\(\s*[^)]+\))+/g).forEach(t=&gt;{let l=t.match(/[\w.-]+/g),d=l.shift();switch(d){case&quot;translate&quot;:2===l.length?e=new g(1,0,0,1,l[0],l[1]):(console.error(&quot;mesh.js: translate does not have 2 arguments!&quot;),e=new g(1,0,0,1,0,0)),h=h.append(e);break;case&quot;scale&quot;:1===l.length?s=new g(l[0],0,0,l[0],0,0):2===l.length?s=new g(l[0],0,0,l[1],0,0):(console.error(&quot;mesh.js: scale does not have 1 or 2 arguments!&quot;),s=new g(1,0,0,1,0,0)),h=h.append(s);break;case&quot;rotate&quot;:if(3===l.length&amp;&amp;(e=new g(1,0,0,1,l[1],l[2]),h=h.append(e)),l[0]){r=l[0]*Math.PI/180;let t=Math.cos(r),e=Math.sin(r);Math.abs(t)&lt;1e-16&amp;&amp;(t=0),Math.abs(e)&lt;1e-16&amp;&amp;(e=0),a=new g(t,e,-e,t,0,0),h=h.append(a)}else console.error(&quot;math.js: No argument to rotate transform!&quot;);3===l.length&amp;&amp;(e=new g(1,0,0,1,-l[1],-l[2]),h=h.append(e));break;case&quot;skewX&quot;:l[0]?(r=l[0]*Math.PI/180,n=Math.tan(r),o=new g(1,0,n,1,0,0),h=h.append(o)):console.error(&quot;math.js: No argument to skewX transform!&quot;);break;case&quot;skewY&quot;:l[0]?(r=l[0]*Math.PI/180,n=Math.tan(r),i=new g(1,n,0,1,0,0),h=h.append(i)):console.error(&quot;math.js: No argument to skewY transform!&quot;);break;case&quot;matrix&quot;:6===l.length?h=h.append(new g(...l)):console.error(&quot;math.js: Incorrect number of arguments for matrix!&quot;);break;default:console.error(&quot;mesh.js: Unhandled transform type: &quot;+d)}}),h},l=t=&gt;{let e=[],s=t.split(/[ ,]+/);for(let t=0,r=s.length-1;t&lt;r;t+=2)e.push(new x(parseFloat(s[t]),parseFloat(s[t+1])));return e},d=(t,e)=&gt;{for(let s in e)t.setAttribute(s,e[s])},c=(t,e,s,r,n)=&gt;{let o,i,a=[0,0,0,0];for(let h=0;h&lt;3;++h)e[h]&lt;t[h]&amp;&amp;e[h]&lt;s[h]||t[h]&lt;e[h]&amp;&amp;s[h]&lt;e[h]?a[h]=0:(a[h]=.5*((e[h]-t[h])/r+(s[h]-e[h])/n),o=Math.abs(3*(e[h]-t[h])/r),i=Math.abs(3*(s[h]-e[h])/n),a[h]&gt;o?a[h]=o:a[h]&gt;i&amp;&amp;(a[h]=i));return a},u=[[1,0,0,0,0,0,0,0,0,0,0,0,0,0,0,0],[0,0,0,0,1,0,0,0,0,0,0,0,0,0,0,0],[-3,3,0,0,-2,-1,0,0,0,0,0,0,0,0,0,0],[2,-2,0,0,1,1,0,0,0,0,0,0,0,0,0,0],[0,0,0,0,0,0,0,0,1,0,0,0,0,0,0,0],[0,0,0,0,0,0,0,0,0,0,0,0,1,0,0,0],[0,0,0,0,0,0,0,0,-3,3,0,0,-2,-1,0,0],[0,0,0,0,0,0,0,0,2,-2,0,0,1,1,0,0],[-3,0,3,0,0,0,0,0,-2,0,-1,0,0,0,0,0],[0,0,0,0,-3,0,3,0,0,0,0,0,-2,0,-1,0],[9,-9,-9,9,6,3,-6,-3,6,-6,3,-3,4,2,2,1],[-6,6,6,-6,-3,-3,3,3,-4,4,-2,2,-2,-2,-1,-1],[2,0,-2,0,0,0,0,0,1,0,1,0,0,0,0,0],[0,0,0,0,2,0,-2,0,0,0,0,0,1,0,1,0],[-6,6,6,-6,-4,-2,4,2,-3,3,-3,3,-2,-1,-2,-1],[4,-4,-4,4,2,2,-2,-2,2,-2,2,-2,1,1,1,1]],f=t=&gt;{let e=[];for(let s=0;s&lt;16;++s){e[s]=0;for(let r=0;r&lt;16;++r)e[s]+=u[s][r]*t[r]}return e},p=(t,e,s)=&gt;{const r=e*e,n=s*s,o=e*e*e,i=s*s*s;return t[0]+t[1]*e+t[2]*r+t[3]*o+t[4]*s+t[5]*s*e+t[6]*s*r+t[7]*s*o+t[8]*n+t[9]*n*e+t[10]*n*r+t[11]*n*o+t[12]*i+t[13]*i*e+t[14]*i*r+t[15]*i*o},y=t=&gt;{let e=[],s=[],r=[];for(let s=0;s&lt;4;++s)e[s]=[],e[s][0]=n(t[0][s],t[1][s],t[2][s],t[3][s]),e[s][1]=[],e[s][1].push(...n(...e[s][0][0])),e[s][1].push(...n(...e[s][0][1])),e[s][2]=[],e[s][2].push(...n(...e[s][1][0])),e[s][2].push(...n(...e[s][1][1])),e[s][2].push(...n(...e[s][1][2])),e[s][2].push(...n(...e[s][1][3]));for(let t=0;t&lt;8;++t){s[t]=[];for(let r=0;r&lt;4;++r)s[t][r]=[],s[t][r][0]=n(e[0][2][t][r],e[1][2][t][r],e[2][2][t][r],e[3][2][t][r]),s[t][r][1]=[],s[t][r][1].push(...n(...s[t][r][0][0])),s[t][r][1].push(...n(...s[t][r][0][1])),s[t][r][2]=[],s[t][r][2].push(...n(...s[t][r][1][0])),s[t][r][2].push(...n(...s[t][r][1][1])),s[t][r][2].push(...n(...s[t][r][1][2])),s[t][r][2].push(...n(...s[t][r][1][3]))}for(let t=0;t&lt;8;++t){r[t]=[];for(let e=0;e&lt;8;++e)r[t][e]=[],r[t][e][0]=s[t][0][2][e],r[t][e][1]=s[t][1][2][e],r[t][e][2]=s[t][2][2][e],r[t][e][3]=s[t][3][2][e]}return r};class x{constructor(t,e){this.x=t||0,this.y=e||0}toString(){return`(x=${this.x}, y=${this.y})`}clone(){return new x(this.x,this.y)}add(t){return new x(this.x+t.x,this.y+t.y)}scale(t){return void 0===t.x?new x(this.x*t,this.y*t):new x(this.x*t.x,this.y*t.y)}distSquared(t){let e=this.x-t.x,s=this.y-t.y;return e*e+s*s}transform(t){let e=this.x*t.a+this.y*t.c+t.e,s=this.x*t.b+this.y*t.d+t.f;return new x(e,s)}}class g{constructor(t,e,s,r,n,o){void 0===t?(this.a=1,this.b=0,this.c=0,this.d=1,this.e=0,this.f=0):(this.a=t,this.b=e,this.c=s,this.d=r,this.e=n,this.f=o)}toString(){return`affine: ${this.a} ${this.c} ${this.e} \n       ${this.b} ${this.d} ${this.f}`}append(t){t instanceof g||console.error(&quot;mesh.js: argument to Affine.append is not affine!&quot;);let e=this.a*t.a+this.c*t.b,s=this.b*t.a+this.d*t.b,r=this.a*t.c+this.c*t.d,n=this.b*t.c+this.d*t.d,o=this.a*t.e+this.c*t.f+this.e,i=this.b*t.e+this.d*t.f+this.f;return new g(e,s,r,n,o,i)}}class w{constructor(t,e){this.nodes=t,this.colors=e}paintCurve(t,e){if(o(this.nodes)&gt;r){const s=n(...this.nodes);let r=[[],[]],o=[[],[]];for(let t=0;t&lt;4;++t)r[0][t]=this.colors[0][t],r[1][t]=(this.colors[0][t]+this.colors[1][t])/2,o[0][t]=r[1][t],o[1][t]=this.colors[1][t];let i=new w(s[0],r),a=new w(s[1],o);i.paintCurve(t,e),a.paintCurve(t,e)}else{let s=Math.round(this.nodes[0].x);if(s&gt;=0&amp;&amp;s&lt;e){let r=4*(~~this.nodes[0].y*e+s);t[r]=Math.round(this.colors[0][0]),t[r+1]=Math.round(this.colors[0][1]),t[r+2]=Math.round(this.colors[0][2]),t[r+3]=Math.round(this.colors[0][3])}}}}class m{constructor(t,e){this.nodes=t,this.colors=e}split(){let t=[[],[],[],[]],e=[[],[],[],[]],s=[[[],[]],[[],[]]],r=[[[],[]],[[],[]]];for(let s=0;s&lt;4;++s){const r=n(this.nodes[0][s],this.nodes[1][s],this.nodes[2][s],this.nodes[3][s]);t[0][s]=r[0][0],t[1][s]=r[0][1],t[2][s]=r[0][2],t[3][s]=r[0][3],e[0][s]=r[1][0],e[1][s]=r[1][1],e[2][s]=r[1][2],e[3][s]=r[1][3]}for(let t=0;t&lt;4;++t)s[0][0][t]=this.colors[0][0][t],s[0][1][t]=this.colors[0][1][t],s[1][0][t]=(this.colors[0][0][t]+this.colors[1][0][t])/2,s[1][1][t]=(this.colors[0][1][t]+this.colors[1][1][t])/2,r[0][0][t]=s[1][0][t],r[0][1][t]=s[1][1][t],r[1][0][t]=this.colors[1][0][t],r[1][1][t]=this.colors[1][1][t];return[new m(t,s),new m(e,r)]}paint(t,e){let s,n=!1;for(let t=0;t&lt;4;++t)if((s=o([this.nodes[0][t],this.nodes[1][t],this.nodes[2][t],this.nodes[3][t]]))&gt;r){n=!0;break}if(n){let s=this.split();s[0].paint(t,e),s[1].paint(t,e)}else{new w([...this.nodes[0]],[...this.colors[0]]).paintCurve(t,e)}}}class b{constructor(t){this.readMesh(t),this.type=t.getAttribute(&quot;type&quot;)||&quot;bilinear&quot;}readMesh(t){let e=[[]],s=[[]],r=Number(t.getAttribute(&quot;x&quot;)),n=Number(t.getAttribute(&quot;y&quot;));e[0][0]=new x(r,n);let o=t.children;for(let t=0,r=o.length;t&lt;r;++t){e[3*t+1]=[],e[3*t+2]=[],e[3*t+3]=[],s[t+1]=[];let r=o[t].children;for(let n=0,o=r.length;n&lt;o;++n){let o=r[n].children;for(let r=0,i=o.length;r&lt;i;++r){let i=r;0!==t&amp;&amp;++i;let h,d=o[r].getAttribute(&quot;path&quot;),c=&quot;l&quot;;null!=d&amp;&amp;(c=(h=d.match(/\s*([lLcC])\s*(.*)/))[1]);let u=l(h[2]);switch(c){case&quot;l&quot;:0===i?(e[3*t][3*n+3]=u[0].add(e[3*t][3*n]),e[3*t][3*n+1]=a(e[3*t][3*n],e[3*t][3*n+3]),e[3*t][3*n+2]=a(e[3*t][3*n+3],e[3*t][3*n])):1===i?(e[3*t+3][3*n+3]=u[0].add(e[3*t][3*n+3]),e[3*t+1][3*n+3]=a(e[3*t][3*n+3],e[3*t+3][3*n+3]),e[3*t+2][3*n+3]=a(e[3*t+3][3*n+3],e[3*t][3*n+3])):2===i?(0===n&amp;&amp;(e[3*t+3][3*n+0]=u[0].add(e[3*t+3][3*n+3])),e[3*t+3][3*n+1]=a(e[3*t+3][3*n],e[3*t+3][3*n+3]),e[3*t+3][3*n+2]=a(e[3*t+3][3*n+3],e[3*t+3][3*n])):(e[3*t+1][3*n]=a(e[3*t][3*n],e[3*t+3][3*n]),e[3*t+2][3*n]=a(e[3*t+3][3*n],e[3*t][3*n]));break;case&quot;L&quot;:0===i?(e[3*t][3*n+3]=u[0],e[3*t][3*n+1]=a(e[3*t][3*n],e[3*t][3*n+3]),e[3*t][3*n+2]=a(e[3*t][3*n+3],e[3*t][3*n])):1===i?(e[3*t+3][3*n+3]=u[0],e[3*t+1][3*n+3]=a(e[3*t][3*n+3],e[3*t+3][3*n+3]),e[3*t+2][3*n+3]=a(e[3*t+3][3*n+3],e[3*t][3*n+3])):2===i?(0===n&amp;&amp;(e[3*t+3][3*n+0]=u[0]),e[3*t+3][3*n+1]=a(e[3*t+3][3*n],e[3*t+3][3*n+3]),e[3*t+3][3*n+2]=a(e[3*t+3][3*n+3],e[3*t+3][3*n])):(e[3*t+1][3*n]=a(e[3*t][3*n],e[3*t+3][3*n]),e[3*t+2][3*n]=a(e[3*t+3][3*n],e[3*t][3*n]));break;case&quot;c&quot;:0===i?(e[3*t][3*n+1]=u[0].add(e[3*t][3*n]),e[3*t][3*n+2]=u[1].add(e[3*t][3*n]),e[3*t][3*n+3]=u[2].add(e[3*t][3*n])):1===i?(e[3*t+1][3*n+3]=u[0].add(e[3*t][3*n+3]),e[3*t+2][3*n+3]=u[1].add(e[3*t][3*n+3]),e[3*t+3][3*n+3]=u[2].add(e[3*t][3*n+3])):2===i?(e[3*t+3][3*n+2]=u[0].add(e[3*t+3][3*n+3]),e[3*t+3][3*n+1]=u[1].add(e[3*t+3][3*n+3]),0===n&amp;&amp;(e[3*t+3][3*n+0]=u[2].add(e[3*t+3][3*n+3]))):(e[3*t+2][3*n]=u[0].add(e[3*t+3][3*n]),e[3*t+1][3*n]=u[1].add(e[3*t+3][3*n]));break;case&quot;C&quot;:0===i?(e[3*t][3*n+1]=u[0],e[3*t][3*n+2]=u[1],e[3*t][3*n+3]=u[2]):1===i?(e[3*t+1][3*n+3]=u[0],e[3*t+2][3*n+3]=u[1],e[3*t+3][3*n+3]=u[2]):2===i?(e[3*t+3][3*n+2]=u[0],e[3*t+3][3*n+1]=u[1],0===n&amp;&amp;(e[3*t+3][3*n+0]=u[2])):(e[3*t+2][3*n]=u[0],e[3*t+1][3*n]=u[1]);break;default:console.error(&quot;mesh.js: &quot;+c+&quot; invalid path type.&quot;)}if(0===t&amp;&amp;0===n||r&gt;0){let e=window.getComputedStyle(o[r]).stopColor.match(/^rgb\s*\(\s*(\d+)\s*,\s*(\d+)\s*,\s*(\d+)\s*\)$/i),a=window.getComputedStyle(o[r]).stopOpacity,h=255;a&amp;&amp;(h=Math.floor(255*a)),e&amp;&amp;(0===i?(s[t][n]=[],s[t][n][0]=Math.floor(e[1]),s[t][n][1]=Math.floor(e[2]),s[t][n][2]=Math.floor(e[3]),s[t][n][3]=h):1===i?(s[t][n+1]=[],s[t][n+1][0]=Math.floor(e[1]),s[t][n+1][1]=Math.floor(e[2]),s[t][n+1][2]=Math.floor(e[3]),s[t][n+1][3]=h):2===i?(s[t+1][n+1]=[],s[t+1][n+1][0]=Math.floor(e[1]),s[t+1][n+1][1]=Math.floor(e[2]),s[t+1][n+1][2]=Math.floor(e[3]),s[t+1][n+1][3]=h):3===i&amp;&amp;(s[t+1][n]=[],s[t+1][n][0]=Math.floor(e[1]),s[t+1][n][1]=Math.floor(e[2]),s[t+1][n][2]=Math.floor(e[3]),s[t+1][n][3]=h))}}e[3*t+1][3*n+1]=new x,e[3*t+1][3*n+2]=new x,e[3*t+2][3*n+1]=new x,e[3*t+2][3*n+2]=new x,e[3*t+1][3*n+1].x=(-4*e[3*t][3*n].x+6*(e[3*t][3*n+1].x+e[3*t+1][3*n].x)+-2*(e[3*t][3*n+3].x+e[3*t+3][3*n].x)+3*(e[3*t+3][3*n+1].x+e[3*t+1][3*n+3].x)+-1*e[3*t+3][3*n+3].x)/9,e[3*t+1][3*n+2].x=(-4*e[3*t][3*n+3].x+6*(e[3*t][3*n+2].x+e[3*t+1][3*n+3].x)+-2*(e[3*t][3*n].x+e[3*t+3][3*n+3].x)+3*(e[3*t+3][3*n+2].x+e[3*t+1][3*n].x)+-1*e[3*t+3][3*n].x)/9,e[3*t+2][3*n+1].x=(-4*e[3*t+3][3*n].x+6*(e[3*t+3][3*n+1].x+e[3*t+2][3*n].x)+-2*(e[3*t+3][3*n+3].x+e[3*t][3*n].x)+3*(e[3*t][3*n+1].x+e[3*t+2][3*n+3].x)+-1*e[3*t][3*n+3].x)/9,e[3*t+2][3*n+2].x=(-4*e[3*t+3][3*n+3].x+6*(e[3*t+3][3*n+2].x+e[3*t+2][3*n+3].x)+-2*(e[3*t+3][3*n].x+e[3*t][3*n+3].x)+3*(e[3*t][3*n+2].x+e[3*t+2][3*n].x)+-1*e[3*t][3*n].x)/9,e[3*t+1][3*n+1].y=(-4*e[3*t][3*n].y+6*(e[3*t][3*n+1].y+e[3*t+1][3*n].y)+-2*(e[3*t][3*n+3].y+e[3*t+3][3*n].y)+3*(e[3*t+3][3*n+1].y+e[3*t+1][3*n+3].y)+-1*e[3*t+3][3*n+3].y)/9,e[3*t+1][3*n+2].y=(-4*e[3*t][3*n+3].y+6*(e[3*t][3*n+2].y+e[3*t+1][3*n+3].y)+-2*(e[3*t][3*n].y+e[3*t+3][3*n+3].y)+3*(e[3*t+3][3*n+2].y+e[3*t+1][3*n].y)+-1*e[3*t+3][3*n].y)/9,e[3*t+2][3*n+1].y=(-4*e[3*t+3][3*n].y+6*(e[3*t+3][3*n+1].y+e[3*t+2][3*n].y)+-2*(e[3*t+3][3*n+3].y+e[3*t][3*n].y)+3*(e[3*t][3*n+1].y+e[3*t+2][3*n+3].y)+-1*e[3*t][3*n+3].y)/9,e[3*t+2][3*n+2].y=(-4*e[3*t+3][3*n+3].y+6*(e[3*t+3][3*n+2].y+e[3*t+2][3*n+3].y)+-2*(e[3*t+3][3*n].y+e[3*t][3*n+3].y)+3*(e[3*t][3*n+2].y+e[3*t+2][3*n].y)+-1*e[3*t][3*n].y)/9}}this.nodes=e,this.colors=s}paintMesh(t,e){let s=(this.nodes.length-1)/3,r=(this.nodes[0].length-1)/3;if(&quot;bilinear&quot;===this.type||s&lt;2||r&lt;2){let n;for(let o=0;o&lt;s;++o)for(let s=0;s&lt;r;++s){let r=[];for(let t=3*o,e=3*o+4;t&lt;e;++t)r.push(this.nodes[t].slice(3*s,3*s+4));let i=[];i.push(this.colors[o].slice(s,s+2)),i.push(this.colors[o+1].slice(s,s+2)),(n=new m(r,i)).paint(t,e)}}else{let n,o,a,h,l,d,u;const x=s,g=r;s++,r++;let w=new Array(s);for(let t=0;t&lt;s;++t){w[t]=new Array(r);for(let e=0;e&lt;r;++e)w[t][e]=[],w[t][e][0]=this.nodes[3*t][3*e],w[t][e][1]=this.colors[t][e]}for(let t=0;t&lt;s;++t)for(let e=0;e&lt;r;++e)0!==t&amp;&amp;t!==x&amp;&amp;(n=i(w[t-1][e][0],w[t][e][0]),o=i(w[t+1][e][0],w[t][e][0]),w[t][e][2]=c(w[t-1][e][1],w[t][e][1],w[t+1][e][1],n,o)),0!==e&amp;&amp;e!==g&amp;&amp;(n=i(w[t][e-1][0],w[t][e][0]),o=i(w[t][e+1][0],w[t][e][0]),w[t][e][3]=c(w[t][e-1][1],w[t][e][1],w[t][e+1][1],n,o));for(let t=0;t&lt;r;++t){w[0][t][2]=[],w[x][t][2]=[];for(let e=0;e&lt;4;++e)n=i(w[1][t][0],w[0][t][0]),o=i(w[x][t][0],w[x-1][t][0]),w[0][t][2][e]=n&gt;0?2*(w[1][t][1][e]-w[0][t][1][e])/n-w[1][t][2][e]:0,w[x][t][2][e]=o&gt;0?2*(w[x][t][1][e]-w[x-1][t][1][e])/o-w[x-1][t][2][e]:0}for(let t=0;t&lt;s;++t){w[t][0][3]=[],w[t][g][3]=[];for(let e=0;e&lt;4;++e)n=i(w[t][1][0],w[t][0][0]),o=i(w[t][g][0],w[t][g-1][0]),w[t][0][3][e]=n&gt;0?2*(w[t][1][1][e]-w[t][0][1][e])/n-w[t][1][3][e]:0,w[t][g][3][e]=o&gt;0?2*(w[t][g][1][e]-w[t][g-1][1][e])/o-w[t][g-1][3][e]:0}for(let s=0;s&lt;x;++s)for(let r=0;r&lt;g;++r){let n=i(w[s][r][0],w[s+1][r][0]),o=i(w[s][r+1][0],w[s+1][r+1][0]),c=i(w[s][r][0],w[s][r+1][0]),x=i(w[s+1][r][0],w[s+1][r+1][0]),g=[[],[],[],[]];for(let t=0;t&lt;4;++t){(d=[])[0]=w[s][r][1][t],d[1]=w[s+1][r][1][t],d[2]=w[s][r+1][1][t],d[3]=w[s+1][r+1][1][t],d[4]=w[s][r][2][t]*n,d[5]=w[s+1][r][2][t]*n,d[6]=w[s][r+1][2][t]*o,d[7]=w[s+1][r+1][2][t]*o,d[8]=w[s][r][3][t]*c,d[9]=w[s+1][r][3][t]*x,d[10]=w[s][r+1][3][t]*c,d[11]=w[s+1][r+1][3][t]*x,d[12]=0,d[13]=0,d[14]=0,d[15]=0,u=f(d);for(let e=0;e&lt;9;++e){g[t][e]=[];for(let s=0;s&lt;9;++s)g[t][e][s]=p(u,e/8,s/8),g[t][e][s]&gt;255?g[t][e][s]=255:g[t][e][s]&lt;0&amp;&amp;(g[t][e][s]=0)}}h=[];for(let t=3*s,e=3*s+4;t&lt;e;++t)h.push(this.nodes[t].slice(3*r,3*r+4));l=y(h);for(let s=0;s&lt;8;++s)for(let r=0;r&lt;8;++r)(a=new m(l[s][r],[[[g[0][s][r],g[1][s][r],g[2][s][r],g[3][s][r]],[g[0][s][r+1],g[1][s][r+1],g[2][s][r+1],g[3][s][r+1]]],[[g[0][s+1][r],g[1][s+1][r],g[2][s+1][r],g[3][s+1][r]],[g[0][s+1][r+1],g[1][s+1][r+1],g[2][s+1][r+1],g[3][s+1][r+1]]]])).paint(t,e)}}}transform(t){if(t instanceof x)for(let e=0,s=this.nodes.length;e&lt;s;++e)for(let s=0,r=this.nodes[0].length;s&lt;r;++s)this.nodes[e][s]=this.nodes[e][s].add(t);else if(t instanceof g)for(let e=0,s=this.nodes.length;e&lt;s;++e)for(let s=0,r=this.nodes[0].length;s&lt;r;++s)this.nodes[e][s]=this.nodes[e][s].transform(t)}scale(t){for(let e=0,s=this.nodes.length;e&lt;s;++e)for(let s=0,r=this.nodes[0].length;s&lt;r;++s)this.nodes[e][s]=this.nodes[e][s].scale(t)}}document.querySelectorAll(&quot;rect,circle,ellipse,path,text&quot;).forEach((r,n)=&gt;{let o=r.getAttribute(&quot;id&quot;);o||(o=&quot;patchjs_shape&quot;+n,r.setAttribute(&quot;id&quot;,o));const i=r.style.fill.match(/^url\(\s*&quot;?\s*#([^\s&quot;]+)&quot;?\s*\)/),a=r.style.stroke.match(/^url\(\s*&quot;?\s*#([^\s&quot;]+)&quot;?\s*\)/);if(i&amp;&amp;i[1]){const a=document.getElementById(i[1]);if(a&amp;&amp;&quot;meshgradient&quot;===a.nodeName){const i=r.getBBox();let l=document.createElementNS(s,&quot;canvas&quot;);d(l,{width:i.width,height:i.height});const c=l.getContext(&quot;2d&quot;);let u=c.createImageData(i.width,i.height);const f=new b(a);&quot;objectBoundingBox&quot;===a.getAttribute(&quot;gradientUnits&quot;)&amp;&amp;f.scale(new x(i.width,i.height));const p=a.getAttribute(&quot;gradientTransform&quot;);null!=p&amp;&amp;f.transform(h(p)),&quot;userSpaceOnUse&quot;===a.getAttribute(&quot;gradientUnits&quot;)&amp;&amp;f.transform(new x(-i.x,-i.y)),f.paintMesh(u.data,l.width),c.putImageData(u,0,0);const y=document.createElementNS(t,&quot;image&quot;);d(y,{width:i.width,height:i.height,x:i.x,y:i.y});let g=l.toDataURL();y.setAttributeNS(e,&quot;xlink:href&quot;,g),r.parentNode.insertBefore(y,r),r.style.fill=&quot;none&quot;;const w=document.createElementNS(t,&quot;use&quot;);w.setAttributeNS(e,&quot;xlink:href&quot;,&quot;#&quot;+o);const m=&quot;patchjs_clip&quot;+n,M=document.createElementNS(t,&quot;clipPath&quot;);M.setAttribute(&quot;id&quot;,m),M.appendChild(w),r.parentElement.insertBefore(M,r),y.setAttribute(&quot;clip-path&quot;,&quot;url(#&quot;+m+&quot;)&quot;),u=null,l=null,g=null}}if(a&amp;&amp;a[1]){const o=document.getElementById(a[1]);if(o&amp;&amp;&quot;meshgradient&quot;===o.nodeName){const i=parseFloat(r.style.strokeWidth.slice(0,-2))*(parseFloat(r.style.strokeMiterlimit)||parseFloat(r.getAttribute(&quot;stroke-miterlimit&quot;))||1),a=r.getBBox(),l=Math.trunc(a.width+i),c=Math.trunc(a.height+i),u=Math.trunc(a.x-i/2),f=Math.trunc(a.y-i/2);let p=document.createElementNS(s,&quot;canvas&quot;);d(p,{width:l,height:c});const y=p.getContext(&quot;2d&quot;);let g=y.createImageData(l,c);const w=new b(o);&quot;objectBoundingBox&quot;===o.getAttribute(&quot;gradientUnits&quot;)&amp;&amp;w.scale(new x(l,c));const m=o.getAttribute(&quot;gradientTransform&quot;);null!=m&amp;&amp;w.transform(h(m)),&quot;userSpaceOnUse&quot;===o.getAttribute(&quot;gradientUnits&quot;)&amp;&amp;w.transform(new x(-u,-f)),w.paintMesh(g.data,p.width),y.putImageData(g,0,0);const M=document.createElementNS(t,&quot;image&quot;);d(M,{width:l,height:c,x:0,y:0});let S=p.toDataURL();M.setAttributeNS(e,&quot;xlink:href&quot;,S);const k=&quot;pattern_clip&quot;+n,A=document.createElementNS(t,&quot;pattern&quot;);d(A,{id:k,patternUnits:&quot;userSpaceOnUse&quot;,width:l,height:c,x:u,y:f}),A.appendChild(M),o.parentNode.appendChild(A),r.style.stroke=&quot;url(#&quot;+k+&quot;)&quot;,g=null,p=null,S=null}}})}();
</script>
</svg>
